<?xml version="1.0" encoding="UTF-8"?>
<svg width="195px" height="50px" viewBox="0 0 195 50" version="1.1" xmlns="http://www.w3.org/2000/svg" xmlns:xlink="http://www.w3.org/1999/xlink">
    <title>iQIYI 会员logo</title>
    <defs>
        <path d="M47.779886,34.59786 C47.966046,34.59786 48.010438,34.77959 47.991106,34.897604 C47.932752,35.724076 47.715983,36.847198 47.194377,37.615802 C46.675814,38.38988 46.179089,38.764084 45.454318,39.106158 C43.336748,40.10501 36.770133,40.990438 29.002607,40.990438 L28.996879,40.990438 C21.231501,40.990438 14.654325,40.10501 12.547495,39.106158 C11.828989,38.764084 11.318839,38.38988 10.782376,37.615802 C10.271868,36.847198 10.050266,35.724076 10.000325,34.897604 C9.986542,34.77959 10.03344,34.59786 10.216199,34.59786 L13.330262,34.602892 C13.52215,34.602892 13.53826,34.75936 13.58838,34.870812 C13.713859,35.24811 13.99113,35.835902 14.332662,36.147172 C14.914949,36.676008 15.306422,36.83438 16.103151,36.955454 C19.341977,37.447332 24.528681,37.709744 28.996879,37.709744 C33.459528,37.709744 38.649275,37.447332 41.887922,36.955454 C42.687336,36.83438 43.078451,36.676008 43.664318,36.147172 C43.999943,35.835902 44.288849,35.24811 44.414149,34.870812 C44.452813,34.75936 44.472503,34.602892 44.677816,34.602892 L47.779886,34.59786 Z M20.366036,16.215216 C22.844649,16.215216 24.859473,17.461384 24.859473,18.983564 L24.859473,18.983564 L24.859473,30.994234 C24.859473,31.886666 24.176051,32.681314 23.12192,33.180162 C23.160763,33.275634 23.343522,33.281108 23.674314,33.281108 L25.0923477,33.2806997 C25.1676824,33.2839191 25.356019,33.319426 25.356019,33.59401 L25.356019,33.59401 L25.356019,34.75936 C25.356019,34.922866 25.230719,35.05907 25.061743,35.05907 L25.061743,35.05907 L23.430158,35.05907 C22.60819,35.042002 22.156215,34.907668 21.789802,34.580826 C21.539739,34.302842 21.440215,34.106016 21.409606,33.691828 C21.070759,33.735688 20.723678,33.765982 20.366036,33.765982 C17.887602,33.765982 15.872778,32.526478 15.872778,30.994234 L15.872778,30.994234 L15.872778,18.983564 C15.872778,17.461384 17.887602,16.215216 20.366036,16.215216 Z M178.803232,28.478268 C178.948938,28.478268 179.112544,28.50812 179.261472,28.588904 C181.082618,29.491876 182.853286,30.60983 184.555039,31.901864 C185.085237,32.361476 185.006835,32.826562 184.869363,33.144462 C184.640243,33.526826 184.378366,33.582314 184.187015,33.582314 C184.041309,33.582314 183.856402,33.54386 183.691006,33.43251 C181.977797,32.226768 180.262977,31.140502 178.541355,30.160316 C178.084905,29.885868 177.9247,29.48018 178.065215,28.977898 C178.320469,28.555516 178.618325,28.478268 178.803232,28.478268 Z M172.149199,23.6247956 L172.313408,23.631466 L182.954779,23.656762 C182.982524,23.656762 183.051439,23.645066 183.107108,23.645066 C183.398162,23.645066 183.637127,23.752642 183.8138,23.921112 C184.041309,24.188998 184.131346,24.603186 184.108255,25.182342 L184.108255,25.182342 L184.095367,29.198762 C184.041309,29.717432 183.750076,30.024112 183.283602,30.074602 L183.283602,30.074602 L183.198577,30.074602 C182.688069,29.963456 182.390034,29.616486 182.413125,29.133074 L182.413125,29.133074 L182.413125,25.753406 C182.421359,25.561612 182.413125,25.443632 182.36569,25.393142 C182.310021,25.34578 182.23144,25.332282 182.113658,25.34578 L182.113658,25.34578 L177.775593,25.332282 C178.148629,25.54961 178.219155,25.901748 178.219155,26.11367 C178.120884,30.19911 175.965724,32.388574 171.007424,33.493064 C170.889642,33.508636 170.794772,33.526826 170.701513,33.526826 C170.190826,33.508636 169.963496,33.189444 169.884736,32.942604 L169.884736,32.942604 L169.850547,32.877018 C169.802933,32.35335 170.070001,31.955414 170.583552,31.800918 C174.7385,31.064852 176.414119,29.406026 176.389775,26.052674 C176.422353,25.716584 176.579336,25.46733 176.805234,25.332282 L176.805234,25.332282 L173.028513,25.308924 C172.964431,25.308924 172.930242,25.303892 172.899096,25.303892 C172.765025,25.303892 172.66031,25.332282 172.604641,25.393142 C172.576717,25.443632 172.576717,25.54961 172.576717,25.630734 L172.576717,25.630734 L172.560428,29.036854 C172.560428,29.59119 172.25935,29.916536 171.709641,29.916536 C171.164586,29.916536 170.847219,29.59119 170.861897,29.036854 L170.861897,29.036854 L170.874964,24.996838 C170.847219,24.571362 170.963211,24.224256 171.179264,23.971568 C171.419661,23.71225 171.807554,23.59427 172.313408,23.631466 Z M152.21493,25.753406 L165.625252,25.800802 C166.111416,25.783734 166.42395,26.100512 166.472996,26.652468 C166.42395,27.248828 166.103361,27.548538 165.625252,27.548538 L165.625252,27.548538 L158.408688,27.506548 C157.34686,28.911088 156.306154,30.118428 155.312704,31.125848 C158.006475,31.125848 160.477212,30.994234 162.653673,30.74498 C162.282069,30.251164 161.873054,29.717432 161.414993,29.171528 C161.030322,28.737586 161.030322,28.271344 161.414993,27.83305 C161.917267,27.440622 162.328072,27.526778 162.728853,27.956504 C163.624032,29.036854 164.581324,30.337014 165.608963,31.825772 C166.008312,32.493056 165.780803,32.95073 165.519105,33.215522 L165.519105,33.215522 L165.460214,33.262442 C165.29804,33.345198 165.141057,33.388684 164.977272,33.388684 C164.674762,33.388684 164.404472,33.235684 164.169087,32.937096 C164.07905,32.787292 163.967712,32.60053 163.803927,32.344748 C163.77296,32.309388 163.77296,32.284228 163.761325,32.270594 C160.979665,32.640922 157.431885,32.799328 153.262438,32.787292 C152.78773,32.792324 152.460518,32.566428 152.308368,32.127318 C152.249477,31.642546 152.398405,31.273714 152.748708,31.02446 C154.074024,29.899502 155.247548,28.716982 156.211105,27.506548 L156.211105,27.506548 L152.21493,27.490976 C151.999056,27.490976 151.494992,27.413728 151.494992,26.618706 C151.508238,25.834224 151.999056,25.753406 152.21493,25.753406 L152.21493,25.753406 Z M85.731645,23.589238 C86.203131,23.589238 86.489352,23.840294 86.536966,24.325202 C86.536966,24.825648 86.281712,25.118728 85.810405,25.172278 L85.810405,25.172278 L83.999641,25.172278 L83.999641,31.590118 C83.935022,32.772196 83.101419,33.364986 81.50993,33.364986 C80.827582,33.364986 80.007762,33.29736 79.013596,33.092408 C78.775526,33.038042 78.618543,32.95073 78.528506,32.779166 C78.418779,32.61107 78.407144,32.37817 78.483398,32.10719 C78.603686,31.738324 78.842651,31.546632 79.179887,31.539662 C79.258289,31.533032 79.336691,31.546632 79.426728,31.568392 C80.240999,31.738324 80.905984,31.78538 81.394654,31.78538 C82.422114,31.78538 82.444131,31.37806 82.444131,31.249676 L82.444131,25.172278 L71.386406,25.172278 C71.0975,25.146982 70.911877,25.051204 70.780133,24.89477 C70.665573,24.749556 70.620644,24.554294 70.645883,24.325202 C70.699046,23.840294 71.005136,23.589238 71.515465,23.589238 L71.515465,23.589238 Z M66.86415,16.801036 C66.990345,16.801036 67.15055,16.827828 67.260277,16.878284 C67.490113,16.984602 67.630807,17.21876 67.672514,17.473046 C67.70366,17.723796 67.585699,18.03748 67.369825,18.189222 C67.203713,18.314988 66.970476,18.358916 66.771786,18.399206 C66.364203,18.480024 66.111455,18.488592 65.687583,18.528882 C65.744147,18.569274 65.766164,18.6233 65.794804,18.68382 C65.856201,18.813836 65.873385,18.963742 65.83669,19.111608 C65.794804,19.39153 65.679349,19.67101 65.567295,19.930328 C65.460253,20.18815 65.342471,20.452058 65.193364,20.692846 L65.193364,20.692846 L67.203713,20.692846 C67.591606,20.692846 67.891789,20.827894 68.065419,21.094998 C68.396569,21.57552 68.498241,22.467714 68.082424,23.860558 C67.896801,24.325202 67.591606,24.426148 67.369825,24.426148 C67.27406,24.426148 67.162006,24.399798 67.049057,24.365594 C67.035095,24.357808 66.999116,24.330234 66.976383,24.325202 C66.945237,24.621818 66.771786,24.97705 66.12846,25.035972 L66.12846,25.035972 L59.489887,25.035972 C59.396449,25.34578 59.287617,25.618732 59.170014,25.859384 L59.170014,25.859384 L64.592819,25.859384 C65.092766,25.859384 65.435551,25.99603 65.609002,26.28214 C65.805365,26.605548 65.755603,27.100486 65.435551,27.763928 C64.949566,28.75428 64.188637,29.643618 63.189638,30.414602 C64.553797,31.051218 66.212948,31.44181 68.119298,31.568392 C68.590426,31.614156 68.849081,31.915362 68.849081,32.398332 C68.792696,32.893746 68.512203,33.163128 68.037674,33.163128 C65.794804,32.97487 63.627293,32.398332 61.594927,31.432086 C61.58365,31.427054 61.493613,31.49264 61.468911,31.498794 C61.13436,31.698068 60.781014,31.87463 60.421582,32.038068 C60.031362,32.213134 59.632908,32.354472 59.222998,32.486086 C58.315647,32.787292 57.392723,32.991122 56.45172,33.166222 C55.974864,33.262442 55.037262,33.348632 54.911246,33.345198 C54.32699,33.304466 53.934443,32.696886 54.265414,32.152614 C54.439044,31.85644 54.714167,31.738324 55.045317,31.705038 C56.90996,31.614156 58.529194,31.273714 59.888341,30.694524 C58.986539,30.086162 58.181397,29.336564 57.485087,28.485238 C57.493321,28.50812 57.170942,28.882358 57.134247,28.911088 C57.02452,29.054364 56.90996,29.19373 56.771772,29.329934 C56.328389,29.80862 55.837392,30.25657 55.295738,30.623464 C54.787557,30.977064 54.240354,31.489206 53.583245,31.489206 C53.271427,31.489206 53.038369,31.37806 52.85919,31.154102 L52.85919,31.154102 L52.853283,31.14873 L52.842006,31.132376 C52.583351,30.65573 52.718496,30.221312 53.223992,29.909566 C55.172228,28.888988 56.671174,27.255356 57.689863,25.035972 L57.689863,25.035972 L55.129626,25.035972 C54.601934,24.991024 54.32699,24.692436 54.32699,24.207222 L54.32699,24.207222 L54.32699,24.18043 C54.240354,24.213852 54.141367,24.22735 54.023585,24.22735 C53.495714,24.22735 53.212536,23.934712 53.212536,23.399382 L53.212536,23.399382 L53.212536,22.06546 C53.212536,20.930404 53.863917,20.692846 54.41112,20.692846 L54.41112,20.692846 L56.235846,20.692846 C56.168721,20.580238 56.090319,20.44553 55.974864,20.275462 C55.800518,19.97735 55.517519,19.758424 55.39383,19.426448 C55.351407,19.352294 55.331717,19.276644 55.323662,19.195826 C55.323662,19.178792 55.331717,19.000598 55.351407,19.000598 C54.992154,18.990058 54.733499,18.963742 54.582244,18.9276 C53.883428,18.853888 53.737185,18.439598 53.737185,18.106126 C53.776386,17.771158 53.962009,17.40542 54.672281,17.40542 C55.825936,17.473046 56.965629,17.491712 58.063615,17.491712 C61.137582,17.491712 64.039709,17.26568 66.712716,16.801036 L66.712716,16.801036 Z M30.470586,16.706754 C30.629359,16.706754 30.761998,16.841462 30.761998,17.010238 L30.761998,17.010238 L30.761998,32.97487 C30.761998,33.144462 30.629359,33.281108 30.470586,33.281108 L30.470586,33.281108 L27.532122,33.281108 C27.362072,33.281108 27.231939,33.144462 27.231939,32.97487 L27.231939,32.97487 L27.231939,17.010238 C27.231939,16.841462 27.362072,16.706754 27.532122,16.706754 L27.532122,16.706754 Z M39.843205,16.67986 L42.809235,16.690026 C42.96228,16.69703 43.142712,16.827828 43.142712,16.993204 C43.142712,17.03006 43.136984,17.060728 43.123201,17.10078 L43.123201,17.10078 L39.418438,27.029902 L39.418438,32.9577 C39.418438,33.124334 39.290811,33.262442 39.126489,33.262442 L39.126489,33.262442 L36.082594,33.262442 C35.924,33.262442 35.790645,33.124334 35.790645,32.9577 L35.790645,32.9577 L35.790645,27.029902 L32.09161,17.10078 C32.09161,17.10078 32.072099,17.03006 32.072099,16.993204 C32.072099,16.827828 32.141909,16.69703 32.291374,16.690026 L32.291374,16.690026 L35.4049,16.67986 C35.532706,16.67986 35.629724,16.752518 35.679844,16.867064 L35.679844,16.867064 L37.622889,22.06546 L39.556984,16.878284 C39.556984,16.87519 39.628763,16.67986 39.843205,16.67986 L39.843205,16.67986 Z M47.713656,16.67986 C47.880305,16.67986 48.010438,16.821198 48.010438,16.993204 L48.010438,16.993204 L48.010438,32.9577 C48.010438,33.124334 47.880305,33.262442 47.713656,33.262442 L47.713656,33.262442 L44.766063,33.262442 C44.602815,33.262442 44.472503,33.124334 44.472503,32.9577 L44.472503,32.9577 L44.472503,16.993204 C44.472503,16.821198 44.602815,16.67986 44.766063,16.67986 L44.766063,16.67986 Z M13.230917,22.093816 C13.400072,22.093816 13.52215,22.226926 13.52215,22.40053 L13.52215,22.40053 L13.52215,32.9577 C13.52215,33.124334 13.400072,33.262442 13.230917,33.262442 L13.230917,33.262442 L10.277596,33.262442 C10.116854,33.262442 9.986542,33.124334 9.986542,32.9577 L9.986542,32.9577 L9.986542,22.40053 C9.986542,22.226926 10.116854,22.093816 10.277596,22.093816 L10.277596,22.093816 Z M139.159923,18.106126 L142.550541,18.121698 C145.556667,18.302986 147.176796,19.892656 147.395892,22.883806 C147.112893,25.793832 145.509232,27.363272 142.622678,27.65795 L142.622678,27.65795 L140.12706,27.65795 L140.117394,32.004646 C140.102716,32.66428 139.734513,33.033452 139.047153,33.033452 C138.33706,33.033452 137.976733,32.66428 137.976733,31.997642 L137.976733,31.997642 L138.004657,19.297248 C138.004657,18.528882 138.418863,18.106126 139.159923,18.106126 L139.159923,18.106126 Z M133.151967,17.9229 C133.844876,17.939628 134.221313,18.363982 134.221313,19.138842 L134.221313,19.138842 L134.18784,31.997642 C134.18784,32.63589 133.789386,33.019852 133.098983,33.008156 C132.407506,33.008156 132.028384,32.63589 132.034291,31.980608 L132.034291,31.980608 L132.062215,19.126704 C132.062215,18.358916 132.458163,17.9229 133.151967,17.9229 Z M102.467019,22 C102.865139,22 103.216983,22.2570491 103.321287,22.6288142 C103.42706,22.9998713 103.261789,23.3942964 102.917291,23.5897386 L102.917291,23.5897386 L92.7020714,29.2674778 C92.6954606,29.2703103 92.6895843,29.2738509 92.6822389,29.2773915 C91.8029969,29.7525428 91.0449537,30.2758465 91.0449537,30.723381 C91.0449537,31.2976696 92.0990157,31.2905884 92.6396357,31.2905884 L101.168356,31.2905884 C102.068165,31.2905884 102.217276,30.6638985 102.226825,30.290009 L102.226825,30.290009 L102.226825,29.0479593 C102.226825,28.5749324 102.623476,28.1932535 103.113413,28.1932535 C103.60188,28.1932535 104,28.5749324 104,29.0479593 L104,29.0479593 L104,30.2999228 C104,31.385477 103.244895,33 101.168356,33 L101.168356,33 L92.6396357,33 C91.387983,33 89.27031,32.5213081 89.27031,30.723381 C89.27031,29.2717265 91.1999412,28.1181924 91.8096078,27.7896228 L91.8096078,27.7896228 L99.222565,23.7087035 L89.8858528,23.7087035 C89.3966505,23.7087035 89,23.3270246 89,22.8539977 C89,22.382387 89.3966505,22 89.8858528,22 L89.8858528,22 Z M118.683039,17.889138 C119.199454,17.889138 119.589674,18.314988 119.885024,19.126704 L119.885024,19.126704 L123.29032,29.183564 L126.725867,19.261514 C126.891979,18.33056 127.329634,17.858946 127.975287,17.9229 C128.693793,18.013782 128.890156,18.480024 128.938307,18.842226 C128.938307,19.111608 128.929178,19.352294 128.862232,19.643878 L128.862232,19.643878 L124.499644,31.955414 C124.289319,32.819558 123.775589,33.002784 123.388591,32.991122 C123.343304,32.991122 123.300881,32.981058 123.26168,32.981058 C123.26168,32.981058 123.210665,32.991122 123.183099,32.991122 C122.812569,32.991122 122.31835,32.806298 122.057368,31.943752 L122.057368,31.943752 L117.852658,19.643878 C117.742752,19.364296 117.683861,19.098008 117.692095,18.842226 C117.762621,18.289794 118.09395,17.963326 118.669256,17.889138 L118.669256,17.889138 Z M20.371943,18.217238 C19.821697,18.217238 19.386548,18.562304 19.386548,18.983564 L19.386548,18.983564 L19.386548,31.11371 C19.386548,31.539662 19.821697,31.880138 20.371943,31.880138 C20.926664,31.880138 21.370584,31.539662 21.370584,31.11371 L21.370584,31.11371 L21.370584,18.983564 C21.370584,18.562304 20.926664,18.217238 20.371943,18.217238 Z M80.159017,26.11367 C80.468329,26.147432 80.706399,26.244944 80.869289,26.418786 C81.021439,26.591914 81.102347,26.793806 81.133493,27.059754 L81.133493,27.059754 L81.133493,29.899502 C81.102347,30.160316 81.021439,30.378086 80.869289,30.529488 C80.706399,30.704588 80.468329,30.79853 80.159017,30.839296 L80.159017,30.839296 L73.045736,30.839296 C72.742152,30.79853 72.498354,30.704588 72.33797,30.529488 C72.192264,30.378086 72.113683,30.160316 72.085938,29.899502 L72.085938,29.899502 L72.085938,27.059754 C72.113683,26.793806 72.192264,26.591914 72.33797,26.418786 C72.498354,26.244944 72.742152,26.147432 73.045736,26.11367 L73.045736,26.11367 Z M63.607782,27.520148 L58.821322,27.520148 C59.436008,28.358656 60.320268,29.09785 61.446178,29.732528 C63.30742,28.444506 63.621744,27.883846 63.6332,27.65795 C63.643761,27.605998 63.627293,27.560098 63.607782,27.520148 L63.607782,27.520148 Z M79.21336,27.560098 L74.002849,27.560098 C73.738645,27.560098 73.626412,27.678214 73.626412,27.942564 L73.626412,27.942564 L73.626412,29.017032 C73.626412,29.276384 73.738645,29.39093 74.002849,29.39093 L74.002849,29.39093 L79.21336,29.39093 C79.477385,29.39093 79.58389,29.276384 79.58389,29.017032 L79.58389,29.017032 L79.58389,27.942564 C79.58389,27.678214 79.477385,27.560098 79.21336,27.560098 L79.21336,27.560098 Z M111.547562,24.375658 C112.195542,24.375658 112.711778,24.909424 112.711778,25.575246 C112.711778,26.244944 112.195542,26.770584 111.547562,26.770584 C110.906921,26.770584 110.384957,26.244944 110.384957,25.575246 C110.384957,24.909424 110.906921,24.375658 111.547562,24.375658 Z M140.158385,20.091454 L140.146929,25.575246 L142.530851,25.590002 C144.203606,25.495686 145.070503,24.608218 145.167342,22.883806 C145.082138,21.080208 144.186959,20.146942 142.465516,20.10655 L142.465516,20.10655 L140.158385,20.091454 Z M159.135428,17.531968 C159.308879,17.542168 159.585255,17.62982 160.405254,18.363982 C162.259515,20.122122 164.157631,21.221546 166.063981,21.651272 C166.602234,21.82134 166.816676,22.24719 166.661125,22.84032 C166.487674,23.345356 166.103361,23.569416 165.533783,23.452932 C163.6584,22.924538 161.748828,21.812772 159.849101,20.122122 C159.38925,19.711402 159.202553,19.603486 159.123972,19.547964 C159.061859,19.58482 158.899864,19.699366 158.531482,20.000572 C157.266847,21.085274 155.97393,21.974238 154.635189,22.691672 L154.635189,22.691672 L162.910538,22.718804 C163.403146,22.718804 163.702613,23.011544 163.756671,23.569416 C163.702613,24.160302 163.39169,24.46688 162.889237,24.47317 L162.889237,24.47317 L154.571644,24.459876 C154.059346,24.431622 153.720499,24.138542 153.674854,23.589238 C153.706,23.399382 153.745201,23.234006 153.81877,23.0977 C153.488336,23.247504 153.159334,23.399382 152.810821,23.520456 C152.642382,23.589238 152.485041,23.631466 152.344526,23.614874 C152.103771,23.614874 151.778349,23.520456 151.534372,23.0977 C151.414979,22.759196 151.374167,22.235494 152.066181,21.86163 C154.167283,20.997486 156.093323,19.805684 157.804921,18.358916 C158.675756,17.62982 158.96681,17.542168 159.135428,17.531968 Z M66.4108276,22.3568816 L60.213763,22.357044 C60.221997,22.54027 60.18029,22.855076 60.031362,23.446302 L60.031362,23.446302 L66.058292,23.446302 C66.265932,23.446302 66.434729,23.480064 66.566473,23.540686 C66.572022,23.458304 66.664386,22.809652 66.648276,22.526636 C66.639147,22.345008 66.485386,22.357044 66.364203,22.357044 Z M58.602047,22.357044 L55.0573215,22.3565623 C54.9787791,22.3565612 54.872582,22.3642588 54.809574,22.441262 C54.689286,22.58719 54.762318,23.399382 54.762318,23.399382 C54.762318,23.452932 54.762318,23.493664 54.758917,23.535212 C54.8801,23.473536 55.034577,23.446302 55.197646,23.446302 L55.197646,23.446302 L58.285396,23.446302 C58.419646,23.12643 58.526867,22.759196 58.602047,22.357044 L58.602047,22.357044 Z M79.488304,19.889596 C79.570107,19.889596 79.648509,19.889596 79.740873,19.909724 C81.751222,20.330644 83.662763,20.779002 85.439696,21.711826 C85.551929,21.780472 85.664699,21.867104 85.757242,21.95717 C85.883258,22.07872 85.955932,22.240526 85.9903,22.405902 C86.020551,22.54027 86.020551,22.739034 85.96166,22.883806 C85.852112,23.200244 85.557478,23.307718 85.279312,23.307718 C85.147568,23.307718 85.004368,23.284462 84.858662,23.207214 C83.601187,22.498382 81.812619,22.08569 79.426728,21.509934 C78.789667,21.31746 78.646288,20.863254 78.722363,20.505608 C78.800944,20.146942 79.10954,19.889596 79.488304,19.889596 Z M77.607193,16.878284 C77.823962,16.58245 78.287214,16.531654 78.615142,16.651572 C78.885074,16.732254 79.044742,17.047094 79.042236,17.33011 C79.028274,17.562296 79.013596,17.75103 78.960433,18.080966 L78.960433,18.080966 L84.749114,18.080966 C85.010096,18.080966 85.433968,18.172154 85.433968,18.842226 C85.433968,19.563094 85.010096,19.67101 84.749114,19.67101 L84.749114,19.67101 L78.595452,19.67101 C77.629926,21.805768 75.252269,23.00488 71.523699,23.222344 C71.361167,23.222344 71.162119,23.173452 71.019098,23.09107 C70.738247,22.924538 70.645883,22.5469 70.729476,22.240526 C70.83079,21.89036 71.178587,21.67497 71.515465,21.644302 C72.017918,21.595784 72.515359,21.549884 73.012084,21.479266 C73.447412,21.425376 73.890795,21.334494 74.322901,21.230012 C74.691104,21.122572 75.04445,21.004456 75.384013,20.832586 C75.670592,20.692846 75.942851,20.505608 76.184322,20.295624 C76.296376,20.203246 76.400375,20.098424 76.504016,19.990508 C76.537668,19.937298 76.605688,19.880994 76.641488,19.835672 C76.669412,19.805684 76.756943,19.67101 76.784867,19.67101 L76.784867,19.67101 L72.105628,19.67101 C71.585812,19.67101 71.297264,19.38099 71.297264,18.842226 C71.297264,18.350348 71.585812,18.080966 72.105628,18.080966 L72.105628,18.080966 L77.27658,18.080966 C77.290363,18.065836 77.296091,18.054174 77.310053,18.023846 C77.349433,17.781222 77.455759,17.208696 77.455759,17.208696 C77.47527,17.10078 77.540068,16.97957 77.607193,16.878284 Z M172.509666,17.8175156 L172.691277,17.821648 L182.413125,17.848746 L182.507995,17.848746 C182.853286,17.848746 183.129662,17.95129 183.323161,18.172154 C183.553534,18.404374 183.645361,18.813836 183.637127,19.317036 L183.637127,19.317036 L183.617437,21.549884 C183.614215,22.752532 182.884432,22.927632 182.468794,22.927632 L182.468794,22.927632 L172.534294,22.89387 L172.419555,22.89387 C172.046698,22.89387 171.753675,22.787926 171.5523,22.567368 C171.32497,22.331408 171.237976,21.964174 171.259456,21.4929 L171.259456,21.4929 L171.262857,19.138842 C171.21041,18.752942 171.298836,18.431132 171.509877,18.20204 C171.740608,17.9229 172.126711,17.79132 172.691277,17.821648 Z M99.6144111,17 C100.077322,17 100.452786,17.348089 100.452786,17.7772487 L100.452786,17.7772487 L100.452786,18.4071548 L104.162319,18.4071548 C104.62523,18.4071548 105,18.7558873 105,19.1856904 C105,19.6135632 104.62523,19.9616523 104.162319,19.9616523 L104.162319,19.9616523 L100.452786,19.9616523 L100.452786,21.2240381 C100.452786,21.651911 100.077322,22 99.6144111,22 C99.1521943,22 98.7767299,21.651911 98.7767299,21.2240381 L98.7767299,21.2240381 L98.7767299,19.9616523 L94.2135538,19.9616523 L94.2135538,21.2240381 C94.2135538,21.651911 93.8387834,22 93.3751786,22 C92.9136558,22 92.5381915,21.651911 92.5381915,21.2240381 L92.5381915,21.2240381 L92.5381915,19.9616523 L88.8383752,19.9616523 C88.3747704,19.9616523 88,19.6135632 88,19.1856904 C88,18.7558873 88.3747704,18.4071548 88.8383752,18.4071548 L88.8383752,18.4071548 L92.5381915,18.4071548 L92.5381915,17.7772487 C92.5381915,17.348089 92.9136558,17 93.3751786,17 C93.8387834,17 94.2135538,17.348089 94.2135538,17.7772487 L94.2135538,17.7772487 L94.2135538,18.4071548 L98.7767299,18.4071548 L98.7767299,17.7772487 C98.7767299,17.348089 99.1521943,17 99.6144111,17 Z M173.034957,19.552996 C172.913774,19.552996 172.899096,19.596856 172.899096,19.653942 L172.899096,19.653942 L172.899096,21.056544 C172.899096,21.10003 172.899096,21.145794 173.087404,21.145794 L173.087404,21.145794 L181.781434,21.176462 C181.989253,21.189756 181.977797,21.176462 181.977797,21.176462 C181.981463,21.1616502 181.986962,21.1269376 181.977797,21.051512 L181.977797,21.051512 L181.989253,19.751352 C182.005542,19.630244 181.989253,19.614706 181.977797,19.603486 C181.977797,19.603486 181.910672,19.596856 181.817592,19.603486 L181.817592,19.603486 L173.160973,19.569724 C173.098681,19.552996 173.056258,19.552996 173.034957,19.552996 Z M64.500455,18.639994 C63.495728,18.752942 62.297144,18.842226 60.912579,18.917502 C61.137582,19.38099 61.375831,19.97038 61.631085,20.692846 L61.631085,20.692846 L63.282181,20.692846 C63.753309,20.182676 64.127419,19.563094 64.371217,18.847258 L64.371217,18.847258 L64.379451,18.842226 C64.416146,18.767732 64.449619,18.707518 64.500455,18.639994 Z M59.399671,19.000598 L56.965629,19.000598 C57.226611,19.337164 57.465755,19.711402 57.675901,20.10655 C57.796726,20.295624 57.807645,20.49245 57.74052,20.692846 L57.74052,20.692846 L60.006123,20.692846 C59.896575,20.406634 59.731,20.01067 59.495615,19.522328 C59.413812,19.386056 59.368704,19.200858 59.399671,19.000598 L59.399671,19.000598 Z M162.344361,14.736522 C162.588159,14.736522 162.784522,14.938856 162.784522,15.189606 C162.784522,15.399964 162.638816,15.571936 162.450687,15.618992 C162.517812,16.127904 162.622527,16.848432 163.054812,17.038628 C163.571943,17.27265 164.564856,16.676426 164.906925,16.470998 C164.828523,16.389976 164.777687,16.277708 164.777687,16.151126 C164.777687,15.902008 164.977272,15.698518 165.221249,15.698518 C165.463436,15.698518 165.65962,15.902008 165.65962,16.151126 C165.65962,16.40395 165.463436,16.605366 165.221249,16.605366 C165.170413,16.605366 165.129422,16.592548 165.087178,16.579016 C165.032762,17.013332 164.753164,18.306522 165.435512,18.606572 C165.887308,18.801834 166.445251,18.532418 166.832965,18.375984 C166.816676,18.33056 166.801998,18.27973 166.801998,18.229274 C166.801998,17.97968 166.998361,17.774252 167.245381,17.774252 C167.487568,17.774252 167.683931,17.97968 167.683931,18.229274 C167.683931,18.480024 167.487568,18.681882 167.245381,18.681882 C167.135833,18.681882 167.037562,18.639994 166.962203,18.569274 C166.299545,19.121672 165.872451,19.492476 164.915159,20.43856 C163.038165,19.901258 161.650557,18.420966 161.650557,18.420966 C161.951635,16.984602 162.053128,16.649634 162.219956,15.615456 C162.03845,15.558336 161.9042,15.393436 161.9042,15.189606 C161.9042,14.938856 162.102174,14.736522 162.344361,14.736522 Z M13.230917,16.67986 C13.400072,16.67986 13.52215,16.821198 13.52215,16.993204 L13.52215,16.993204 L13.52215,20.057692 C13.52215,20.2281 13.400072,20.371376 13.230917,20.371376 L13.230917,20.371376 L10.277596,20.371376 C10.116854,20.371376 9.986542,20.2281 9.986542,20.057692 L9.986542,20.057692 L9.986542,16.993204 C9.986542,16.821198 10.116854,16.67986 10.277596,16.67986 L10.277596,16.67986 Z M29.002607,9.012418 C36.770133,9.012418 43.336748,9.886286 45.454318,10.895678 C46.179089,11.24037 46.675814,11.616172 47.194377,12.392222 C47.715983,13.153482 47.932752,14.283132 47.991106,15.120824 C48.010438,15.22177 47.966046,15.415162 47.779886,15.415162 L47.779886,15.415162 L44.677816,15.406934 C44.472503,15.406934 44.452813,15.25016 44.414149,15.134118 C44.288849,14.761818 43.999943,14.175556 43.664318,13.85922 C43.078451,13.325488 42.687336,13.167422 41.887922,13.052536 C38.649275,12.554028 33.459528,12.298246 28.996879,12.298246 C24.528681,12.298246 19.341977,12.554028 16.103151,13.052536 C15.306422,13.167422 14.914949,13.325488 14.332662,13.85922 C13.99113,14.175556 13.713859,14.761818 13.58838,15.134118 C13.53826,15.25016 13.52215,15.406934 13.330262,15.406934 L13.330262,15.406934 L10.216199,15.415162 C10.03344,15.415162 9.986542,15.22177 10.000325,15.120824 C10.050266,14.283132 10.271868,13.153482 10.782376,12.392222 C11.318839,11.616172 11.828989,11.24037 12.547495,10.895678 C14.654325,9.886286 21.231501,9.012418 28.996879,9.012418 L28.996879,9.012418 Z" id="path-1"></path>
        <filter x="-6.9%" y="-37.5%" width="113.7%" height="175.1%" filterUnits="objectBoundingBox" id="filter-2">
            <feOffset dx="0" dy="0" in="SourceAlpha" result="shadowOffsetOuter1"></feOffset>
            <feGaussianBlur stdDeviation="4" in="shadowOffsetOuter1" result="shadowBlurOuter1"></feGaussianBlur>
            <feComposite in="shadowBlurOuter1" in2="SourceAlpha" operator="out" result="shadowBlurOuter1"></feComposite>
            <feColorMatrix values="0 0 0 0 0   0 0 0 0 0   0 0 0 0 0  0 0 0 0.2 0" type="matrix" in="shadowBlurOuter1"></feColorMatrix>
        </filter>
    </defs>
    <g id="iQIYI-会员logo" stroke="none" stroke-width="1" fill="none" fill-rule="evenodd">
        <g id="iQIYI-logo">
            <use fill="black" fill-opacity="1" filter="url(#filter-2)" xlink:href="#path-1"></use>
            <use fill-opacity="0.34" fill="#FFFFFF" fill-rule="evenodd" xlink:href="#path-1"></use>
        </g>
    </g>
</svg>